# xmcd
#
# Track frame offsets:
#	150
#	17289
#	32803
#	50010
#	64015
#	80257
#	96700
#	113427
#	130841
#	146773
#	163053
#	179411
#	195627
#	209531
#	227154
#	254182
#
# Disc length: 3974 seconds
#
# Revision: 1
# Processed by: cddbd v1.5.2PL0 Copyright (c) Steve Scherf et al.
# Submitted via: audiograbber 1.83.01
#
DISCID=e80f8410
DTITLE=Various Artist - ASK-60 Disc 2
DYEAR=2006
DGENRE=Karaoke
TTITLE0=Josh Turner - Would You Go With Me
TTITLE1=Kenny Chesney - Simmertime
TTITLE2=Miranda Lambert - New Strings
TTITLE3=Neal McCoy - The Last Of A Dying Breed
TTITLE4=Rascal Flatts - What Hurts The Most
TTITLE5=Rascal Flatts - Me And My Gang
TTITLE6=Rio Grand - Kill Me Now
TTITLE7=Ronnie Milsap - Local Girls
TTITLE8=The Lost Trailers - Call Me Crazy
TTITLE9=The Wreckers - Leave The Pieces
TTITLE10=Tim McGraw - When The Stars Go Blue
TTITLE11=Toby Keith - A Little Too Late
TTITLE12=Toby Keith - Get Drunk And Be Somebody
TTITLE13=Toby Keith - As Good As I Once Was
TTITLE14=Trace Atkins - Swing
TTITLE15=Data - Data Track
EXTD=
EXTT0=
EXTT1=
EXTT2=
EXTT3=
EXTT4=
EXTT5=
EXTT6=
EXTT7=
EXTT8=
EXTT9=
EXTT10=
EXTT11=
EXTT12=
EXTT13=
EXTT14=
EXTT15=
PLAYORDER=
